<svg xmlns="http://www.w3.org/2000/svg" width="270" height="270" viewBox="0 0 270 270"><rect width="100%" height="100%" fill="#ffffff"></rect><g transform="translate(24,24)"><rect x="0" y="0" width="6" height="6" fill="#041626"></rect><rect x="6" y="0" width="6" height="6" fill="#041626"></rect><rect x="12" y="0" width="6" height="6" fill="#041626"></rect><rect x="18" y="0" width="6" height="6" fill="#041626"></rect><rect x="24" y="0" width="6" height="6" fill="#041626"></rect><rect x="30" y="0" width="6" height="6" fill="#041626"></rect><rect x="36" y="0" width="6" height="6" fill="#041626"></rect><rect x="54" y="0" width="6" height="6" fill="#041626"></rect><rect x="60" y="0" width="6" height="6" fill="#041626"></rect><rect x="78" y="0" width="6" height="6" fill="#041626"></rect><rect x="84" y="0" width="6" height="6" fill="#041626"></rect><rect x="102" y="0" width="6" height="6" fill="#041626"></rect><rect x="126" y="0" width="6" height="6" fill="#041626"></rect><rect x="132" y="0" width="6" height="6" fill="#041626"></rect><rect x="138" y="0" width="6" height="6" fill="#041626"></rect><rect x="144" y="0" width="6" height="6" fill="#041626"></rect><rect x="150" y="0" width="6" height="6" fill="#041626"></rect><rect x="156" y="0" width="6" height="6" fill="#041626"></rect><rect x="180" y="0" width="6" height="6" fill="#041626"></rect><rect x="186" y="0" width="6" height="6" fill="#041626"></rect><rect x="192" y="0" width="6" height="6" fill="#041626"></rect><rect x="198" y="0" width="6" height="6" fill="#041626"></rect><rect x="204" y="0" width="6" height="6" fill="#041626"></rect><rect x="210" y="0" width="6" height="6" fill="#041626"></rect><rect x="216" y="0" width="6" height="6" fill="#041626"></rect><rect x="0" y="6" width="6" height="6" fill="#041626"></rect><rect x="36" y="6" width="6" height="6" fill="#041626"></rect><rect x="54" y="6" width="6" height="6" fill="#041626"></rect><rect x="66" y="6" width="6" height="6" fill="#041626"></rect><rect x="72" y="6" width="6" height="6" fill="#041626"></rect><rect x="78" y="6" width="6" height="6" fill="#041626"></rect><rect x="90" y="6" width="6" height="6" fill="#041626"></rect><rect x="96" y="6" width="6" height="6" fill="#041626"></rect><rect x="114" y="6" width="6" height="6" fill="#041626"></rect><rect x="120" y="6" width="6" height="6" fill="#041626"></rect><rect x="126" y="6" width="6" height="6" fill="#041626"></rect><rect x="144" y="6" width="6" height="6" fill="#041626"></rect><rect x="150" y="6" width="6" height="6" fill="#041626"></rect><rect x="168" y="6" width="6" height="6" fill="#041626"></rect><rect x="180" y="6" width="6" height="6" fill="#041626"></rect><rect x="216" y="6" width="6" height="6" fill="#041626"></rect><rect x="0" y="12" width="6" height="6" fill="#041626"></rect><rect x="12" y="12" width="6" height="6" fill="#041626"></rect><rect x="18" y="12" width="6" height="6" fill="#041626"></rect><rect x="24" y="12" width="6" height="6" fill="#041626"></rect><rect x="36" y="12" width="6" height="6" fill="#041626"></rect><rect x="48" y="12" width="6" height="6" fill="#041626"></rect><rect x="60" y="12" width="6" height="6" fill="#041626"></rect><rect x="78" y="12" width="6" height="6" fill="#041626"></rect><rect x="96" y="12" width="6" height="6" fill="#041626"></rect><rect x="108" y="12" width="6" height="6" fill="#041626"></rect><rect x="114" y="12" width="6" height="6" fill="#041626"></rect><rect x="132" y="12" width="6" height="6" fill="#041626"></rect><rect x="150" y="12" width="6" height="6" fill="#041626"></rect><rect x="156" y="12" width="6" height="6" fill="#041626"></rect><rect x="168" y="12" width="6" height="6" fill="#041626"></rect><rect x="180" y="12" width="6" height="6" fill="#041626"></rect><rect x="192" y="12" width="6" height="6" fill="#041626"></rect><rect x="198" y="12" width="6" height="6" fill="#041626"></rect><rect x="204" y="12" width="6" height="6" fill="#041626"></rect><rect x="216" y="12" width="6" height="6" fill="#041626"></rect><rect x="0" y="18" width="6" height="6" fill="#041626"></rect><rect x="12" y="18" width="6" height="6" fill="#041626"></rect><rect x="18" y="18" width="6" height="6" fill="#041626"></rect><rect x="24" y="18" width="6" height="6" fill="#041626"></rect><rect x="36" y="18" width="6" height="6" fill="#041626"></rect><rect x="48" y="18" width="6" height="6" fill="#041626"></rect><rect x="102" y="18" width="6" height="6" fill="#041626"></rect><rect x="108" y="18" width="6" height="6" fill="#041626"></rect><rect x="114" y="18" width="6" height="6" fill="#041626"></rect><rect x="126" y="18" width="6" height="6" fill="#041626"></rect><rect x="144" y="18" width="6" height="6" fill="#041626"></rect><rect x="150" y="18" width="6" height="6" fill="#041626"></rect><rect x="168" y="18" width="6" height="6" fill="#041626"></rect><rect x="180" y="18" width="6" height="6" fill="#041626"></rect><rect x="192" y="18" width="6" height="6" fill="#041626"></rect><rect x="198" y="18" width="6" height="6" fill="#041626"></rect><rect x="204" y="18" width="6" height="6" fill="#041626"></rect><rect x="216" y="18" width="6" height="6" fill="#041626"></rect><rect x="0" y="24" width="6" height="6" fill="#041626"></rect><rect x="12" y="24" width="6" height="6" fill="#041626"></rect><rect x="18" y="24" width="6" height="6" fill="#041626"></rect><rect x="24" y="24" width="6" height="6" fill="#041626"></rect><rect x="36" y="24" width="6" height="6" fill="#041626"></rect><rect x="60" y="24" width="6" height="6" fill="#041626"></rect><rect x="72" y="24" width="6" height="6" fill="#041626"></rect><rect x="78" y="24" width="6" height="6" fill="#041626"></rect><rect x="84" y="24" width="6" height="6" fill="#041626"></rect><rect x="90" y="24" width="6" height="6" fill="#041626"></rect><rect x="96" y="24" width="6" height="6" fill="#041626"></rect><rect x="108" y="24" width="6" height="6" fill="#041626"></rect><rect x="114" y="24" width="6" height="6" fill="#041626"></rect><rect x="132" y="24" width="6" height="6" fill="#041626"></rect><rect x="138" y="24" width="6" height="6" fill="#041626"></rect><rect x="144" y="24" width="6" height="6" fill="#041626"></rect><rect x="156" y="24" width="6" height="6" fill="#041626"></rect><rect x="180" y="24" width="6" height="6" fill="#041626"></rect><rect x="192" y="24" width="6" height="6" fill="#041626"></rect><rect x="198" y="24" width="6" height="6" fill="#041626"></rect><rect x="204" y="24" width="6" height="6" fill="#041626"></rect><rect x="216" y="24" width="6" height="6" fill="#041626"></rect><rect x="0" y="30" width="6" height="6" fill="#041626"></rect><rect x="36" y="30" width="6" height="6" fill="#041626"></rect><rect x="54" y="30" width="6" height="6" fill="#041626"></rect><rect x="60" y="30" width="6" height="6" fill="#041626"></rect><rect x="72" y="30" width="6" height="6" fill="#041626"></rect><rect x="96" y="30" width="6" height="6" fill="#041626"></rect><rect x="114" y="30" width="6" height="6" fill="#041626"></rect><rect x="126" y="30" width="6" height="6" fill="#041626"></rect><rect x="132" y="30" width="6" height="6" fill="#041626"></rect><rect x="138" y="30" width="6" height="6" fill="#041626"></rect><rect x="180" y="30" width="6" height="6" fill="#041626"></rect><rect x="216" y="30" width="6" height="6" fill="#041626"></rect><rect x="0" y="36" width="6" height="6" fill="#041626"></rect><rect x="6" y="36" width="6" height="6" fill="#041626"></rect><rect x="12" y="36" width="6" height="6" fill="#041626"></rect><rect x="18" y="36" width="6" height="6" fill="#041626"></rect><rect x="24" y="36" width="6" height="6" fill="#041626"></rect><rect x="30" y="36" width="6" height="6" fill="#041626"></rect><rect x="36" y="36" width="6" height="6" fill="#041626"></rect><rect x="48" y="36" width="6" height="6" fill="#041626"></rect><rect x="60" y="36" width="6" height="6" fill="#041626"></rect><rect x="72" y="36" width="6" height="6" fill="#041626"></rect><rect x="84" y="36" width="6" height="6" fill="#041626"></rect><rect x="96" y="36" width="6" height="6" fill="#041626"></rect><rect x="108" y="36" width="6" height="6" fill="#041626"></rect><rect x="120" y="36" width="6" height="6" fill="#041626"></rect><rect x="132" y="36" width="6" height="6" fill="#041626"></rect><rect x="144" y="36" width="6" height="6" fill="#041626"></rect><rect x="156" y="36" width="6" height="6" fill="#041626"></rect><rect x="168" y="36" width="6" height="6" fill="#041626"></rect><rect x="180" y="36" width="6" height="6" fill="#041626"></rect><rect x="186" y="36" width="6" height="6" fill="#041626"></rect><rect x="192" y="36" width="6" height="6" fill="#041626"></rect><rect x="198" y="36" width="6" height="6" fill="#041626"></rect><rect x="204" y="36" width="6" height="6" fill="#041626"></rect><rect x="210" y="36" width="6" height="6" fill="#041626"></rect><rect x="216" y="36" width="6" height="6" fill="#041626"></rect><rect x="60" y="42" width="6" height="6" fill="#041626"></rect><rect x="72" y="42" width="6" height="6" fill="#041626"></rect><rect x="78" y="42" width="6" height="6" fill="#041626"></rect><rect x="102" y="42" width="6" height="6" fill="#041626"></rect><rect x="126" y="42" width="6" height="6" fill="#041626"></rect><rect x="132" y="42" width="6" height="6" fill="#041626"></rect><rect x="144" y="42" width="6" height="6" fill="#041626"></rect><rect x="150" y="42" width="6" height="6" fill="#041626"></rect><rect x="162" y="42" width="6" height="6" fill="#041626"></rect><rect x="168" y="42" width="6" height="6" fill="#041626"></rect><rect x="18" y="48" width="6" height="6" fill="#041626"></rect><rect x="24" y="48" width="6" height="6" fill="#041626"></rect><rect x="36" y="48" width="6" height="6" fill="#041626"></rect><rect x="42" y="48" width="6" height="6" fill="#041626"></rect><rect x="66" y="48" width="6" height="6" fill="#041626"></rect><rect x="84" y="48" width="6" height="6" fill="#041626"></rect><rect x="102" y="48" width="6" height="6" fill="#041626"></rect><rect x="132" y="48" width="6" height="6" fill="#041626"></rect><rect x="144" y="48" width="6" height="6" fill="#041626"></rect><rect x="150" y="48" width="6" height="6" fill="#041626"></rect><rect x="168" y="48" width="6" height="6" fill="#041626"></rect><rect x="174" y="48" width="6" height="6" fill="#041626"></rect><rect x="192" y="48" width="6" height="6" fill="#041626"></rect><rect x="198" y="48" width="6" height="6" fill="#041626"></rect><rect x="6" y="54" width="6" height="6" fill="#041626"></rect><rect x="24" y="54" width="6" height="6" fill="#041626"></rect><rect x="48" y="54" width="6" height="6" fill="#041626"></rect><rect x="54" y="54" width="6" height="6" fill="#041626"></rect><rect x="72" y="54" width="6" height="6" fill="#041626"></rect><rect x="96" y="54" width="6" height="6" fill="#041626"></rect><rect x="102" y="54" width="6" height="6" fill="#041626"></rect><rect x="108" y="54" width="6" height="6" fill="#041626"></rect><rect x="120" y="54" width="6" height="6" fill="#041626"></rect><rect x="126" y="54" width="6" height="6" fill="#041626"></rect><rect x="138" y="54" width="6" height="6" fill="#041626"></rect><rect x="144" y="54" width="6" height="6" fill="#041626"></rect><rect x="150" y="54" width="6" height="6" fill="#041626"></rect><rect x="174" y="54" width="6" height="6" fill="#041626"></rect><rect x="180" y="54" width="6" height="6" fill="#041626"></rect><rect x="192" y="54" width="6" height="6" fill="#041626"></rect><rect x="204" y="54" width="6" height="6" fill="#041626"></rect><rect x="12" y="60" width="6" height="6" fill="#041626"></rect><rect x="18" y="60" width="6" height="6" fill="#041626"></rect><rect x="24" y="60" width="6" height="6" fill="#041626"></rect><rect x="36" y="60" width="6" height="6" fill="#041626"></rect><rect x="54" y="60" width="6" height="6" fill="#041626"></rect><rect x="84" y="60" width="6" height="6" fill="#041626"></rect><rect x="96" y="60" width="6" height="6" fill="#041626"></rect><rect x="108" y="60" width="6" height="6" fill="#041626"></rect><rect x="114" y="60" width="6" height="6" fill="#041626"></rect><rect x="120" y="60" width="6" height="6" fill="#041626"></rect><rect x="132" y="60" width="6" height="6" fill="#041626"></rect><rect x="144" y="60" width="6" height="6" fill="#041626"></rect><rect x="150" y="60" width="6" height="6" fill="#041626"></rect><rect x="174" y="60" width="6" height="6" fill="#041626"></rect><rect x="180" y="60" width="6" height="6" fill="#041626"></rect><rect x="186" y="60" width="6" height="6" fill="#041626"></rect><rect x="192" y="60" width="6" height="6" fill="#041626"></rect><rect x="198" y="60" width="6" height="6" fill="#041626"></rect><rect x="216" y="60" width="6" height="6" fill="#041626"></rect><rect x="12" y="66" width="6" height="6" fill="#041626"></rect><rect x="30" y="66" width="6" height="6" fill="#041626"></rect><rect x="42" y="66" width="6" height="6" fill="#041626"></rect><rect x="48" y="66" width="6" height="6" fill="#041626"></rect><rect x="54" y="66" width="6" height="6" fill="#041626"></rect><rect x="60" y="66" width="6" height="6" fill="#041626"></rect><rect x="72" y="66" width="6" height="6" fill="#041626"></rect><rect x="90" y="66" width="6" height="6" fill="#041626"></rect><rect x="96" y="66" width="6" height="6" fill="#041626"></rect><rect x="102" y="66" width="6" height="6" fill="#041626"></rect><rect x="108" y="66" width="6" height="6" fill="#041626"></rect><rect x="114" y="66" width="6" height="6" fill="#041626"></rect><rect x="132" y="66" width="6" height="6" fill="#041626"></rect><rect x="138" y="66" width="6" height="6" fill="#041626"></rect><rect x="156" y="66" width="6" height="6" fill="#041626"></rect><rect x="162" y="66" width="6" height="6" fill="#041626"></rect><rect x="174" y="66" width="6" height="6" fill="#041626"></rect><rect x="180" y="66" width="6" height="6" fill="#041626"></rect><rect x="204" y="66" width="6" height="6" fill="#041626"></rect><rect x="0" y="72" width="6" height="6" fill="#041626"></rect><rect x="6" y="72" width="6" height="6" fill="#041626"></rect><rect x="24" y="72" width="6" height="6" fill="#041626"></rect><rect x="36" y="72" width="6" height="6" fill="#041626"></rect><rect x="42" y="72" width="6" height="6" fill="#041626"></rect><rect x="54" y="72" width="6" height="6" fill="#041626"></rect><rect x="60" y="72" width="6" height="6" fill="#041626"></rect><rect x="78" y="72" width="6" height="6" fill="#041626"></rect><rect x="84" y="72" width="6" height="6" fill="#041626"></rect><rect x="90" y="72" width="6" height="6" fill="#041626"></rect><rect x="102" y="72" width="6" height="6" fill="#041626"></rect><rect x="108" y="72" width="6" height="6" fill="#041626"></rect><rect x="126" y="72" width="6" height="6" fill="#041626"></rect><rect x="132" y="72" width="6" height="6" fill="#041626"></rect><rect x="138" y="72" width="6" height="6" fill="#041626"></rect><rect x="144" y="72" width="6" height="6" fill="#041626"></rect><rect x="168" y="72" width="6" height="6" fill="#041626"></rect><rect x="180" y="72" width="6" height="6" fill="#041626"></rect><rect x="186" y="72" width="6" height="6" fill="#041626"></rect><rect x="198" y="72" width="6" height="6" fill="#041626"></rect><rect x="210" y="72" width="6" height="6" fill="#041626"></rect><rect x="6" y="78" width="6" height="6" fill="#041626"></rect><rect x="72" y="78" width="6" height="6" fill="#041626"></rect><rect x="78" y="78" width="6" height="6" fill="#041626"></rect><rect x="84" y="78" width="6" height="6" fill="#041626"></rect><rect x="90" y="78" width="6" height="6" fill="#041626"></rect><rect x="102" y="78" width="6" height="6" fill="#041626"></rect><rect x="114" y="78" width="6" height="6" fill="#041626"></rect><rect x="120" y="78" width="6" height="6" fill="#041626"></rect><rect x="132" y="78" width="6" height="6" fill="#041626"></rect><rect x="138" y="78" width="6" height="6" fill="#041626"></rect><rect x="144" y="78" width="6" height="6" fill="#041626"></rect><rect x="162" y="78" width="6" height="6" fill="#041626"></rect><rect x="168" y="78" width="6" height="6" fill="#041626"></rect><rect x="174" y="78" width="6" height="6" fill="#041626"></rect><rect x="192" y="78" width="6" height="6" fill="#041626"></rect><rect x="204" y="78" width="6" height="6" fill="#041626"></rect><rect x="0" y="84" width="6" height="6" fill="#041626"></rect><rect x="30" y="84" width="6" height="6" fill="#041626"></rect><rect x="36" y="84" width="6" height="6" fill="#041626"></rect><rect x="42" y="84" width="6" height="6" fill="#041626"></rect><rect x="48" y="84" width="6" height="6" fill="#041626"></rect><rect x="54" y="84" width="6" height="6" fill="#041626"></rect><rect x="84" y="84" width="6" height="6" fill="#041626"></rect><rect x="90" y="84" width="6" height="6" fill="#041626"></rect><rect x="96" y="84" width="6" height="6" fill="#041626"></rect><rect x="102" y="84" width="6" height="6" fill="#041626"></rect><rect x="108" y="84" width="6" height="6" fill="#041626"></rect><rect x="120" y="84" width="6" height="6" fill="#041626"></rect><rect x="132" y="84" width="6" height="6" fill="#041626"></rect><rect x="138" y="84" width="6" height="6" fill="#041626"></rect><rect x="150" y="84" width="6" height="6" fill="#041626"></rect><rect x="162" y="84" width="6" height="6" fill="#041626"></rect><rect x="174" y="84" width="6" height="6" fill="#041626"></rect><rect x="186" y="84" width="6" height="6" fill="#041626"></rect><rect x="192" y="84" width="6" height="6" fill="#041626"></rect><rect x="198" y="84" width="6" height="6" fill="#041626"></rect><rect x="204" y="84" width="6" height="6" fill="#041626"></rect><rect x="210" y="84" width="6" height="6" fill="#041626"></rect><rect x="216" y="84" width="6" height="6" fill="#041626"></rect><rect x="0" y="90" width="6" height="6" fill="#041626"></rect><rect x="6" y="90" width="6" height="6" fill="#041626"></rect><rect x="12" y="90" width="6" height="6" fill="#041626"></rect><rect x="18" y="90" width="6" height="6" fill="#041626"></rect><rect x="24" y="90" width="6" height="6" fill="#041626"></rect><rect x="30" y="90" width="6" height="6" fill="#041626"></rect><rect x="48" y="90" width="6" height="6" fill="#041626"></rect><rect x="60" y="90" width="6" height="6" fill="#041626"></rect><rect x="78" y="90" width="6" height="6" fill="#041626"></rect><rect x="84" y="90" width="6" height="6" fill="#041626"></rect><rect x="90" y="90" width="6" height="6" fill="#041626"></rect><rect x="96" y="90" width="6" height="6" fill="#041626"></rect><rect x="114" y="90" width="6" height="6" fill="#041626"></rect><rect x="132" y="90" width="6" height="6" fill="#041626"></rect><rect x="144" y="90" width="6" height="6" fill="#041626"></rect><rect x="156" y="90" width="6" height="6" fill="#041626"></rect><rect x="162" y="90" width="6" height="6" fill="#041626"></rect><rect x="168" y="90" width="6" height="6" fill="#041626"></rect><rect x="174" y="90" width="6" height="6" fill="#041626"></rect><rect x="180" y="90" width="6" height="6" fill="#041626"></rect><rect x="186" y="90" width="6" height="6" fill="#041626"></rect><rect x="192" y="90" width="6" height="6" fill="#041626"></rect><rect x="198" y="90" width="6" height="6" fill="#041626"></rect><rect x="204" y="90" width="6" height="6" fill="#041626"></rect><rect x="216" y="90" width="6" height="6" fill="#041626"></rect><rect x="6" y="96" width="6" height="6" fill="#041626"></rect><rect x="12" y="96" width="6" height="6" fill="#041626"></rect><rect x="18" y="96" width="6" height="6" fill="#041626"></rect><rect x="24" y="96" width="6" height="6" fill="#041626"></rect><rect x="36" y="96" width="6" height="6" fill="#041626"></rect><rect x="42" y="96" width="6" height="6" fill="#041626"></rect><rect x="66" y="96" width="6" height="6" fill="#041626"></rect><rect x="96" y="96" width="6" height="6" fill="#041626"></rect><rect x="102" y="96" width="6" height="6" fill="#041626"></rect><rect x="114" y="96" width="6" height="6" fill="#041626"></rect><rect x="120" y="96" width="6" height="6" fill="#041626"></rect><rect x="132" y="96" width="6" height="6" fill="#041626"></rect><rect x="144" y="96" width="6" height="6" fill="#041626"></rect><rect x="150" y="96" width="6" height="6" fill="#041626"></rect><rect x="162" y="96" width="6" height="6" fill="#041626"></rect><rect x="168" y="96" width="6" height="6" fill="#041626"></rect><rect x="180" y="96" width="6" height="6" fill="#041626"></rect><rect x="204" y="96" width="6" height="6" fill="#041626"></rect><rect x="210" y="96" width="6" height="6" fill="#041626"></rect><rect x="6" y="102" width="6" height="6" fill="#041626"></rect><rect x="12" y="102" width="6" height="6" fill="#041626"></rect><rect x="48" y="102" width="6" height="6" fill="#041626"></rect><rect x="96" y="102" width="6" height="6" fill="#041626"></rect><rect x="102" y="102" width="6" height="6" fill="#041626"></rect><rect x="108" y="102" width="6" height="6" fill="#041626"></rect><rect x="126" y="102" width="6" height="6" fill="#041626"></rect><rect x="144" y="102" width="6" height="6" fill="#041626"></rect><rect x="150" y="102" width="6" height="6" fill="#041626"></rect><rect x="162" y="102" width="6" height="6" fill="#041626"></rect><rect x="174" y="102" width="6" height="6" fill="#041626"></rect><rect x="186" y="102" width="6" height="6" fill="#041626"></rect><rect x="198" y="102" width="6" height="6" fill="#041626"></rect><rect x="204" y="102" width="6" height="6" fill="#041626"></rect><rect x="210" y="102" width="6" height="6" fill="#041626"></rect><rect x="0" y="108" width="6" height="6" fill="#041626"></rect><rect x="18" y="108" width="6" height="6" fill="#041626"></rect><rect x="36" y="108" width="6" height="6" fill="#041626"></rect><rect x="42" y="108" width="6" height="6" fill="#041626"></rect><rect x="54" y="108" width="6" height="6" fill="#041626"></rect><rect x="60" y="108" width="6" height="6" fill="#041626"></rect><rect x="66" y="108" width="6" height="6" fill="#041626"></rect><rect x="78" y="108" width="6" height="6" fill="#041626"></rect><rect x="90" y="108" width="6" height="6" fill="#041626"></rect><rect x="96" y="108" width="6" height="6" fill="#041626"></rect><rect x="120" y="108" width="6" height="6" fill="#041626"></rect><rect x="132" y="108" width="6" height="6" fill="#041626"></rect><rect x="138" y="108" width="6" height="6" fill="#041626"></rect><rect x="144" y="108" width="6" height="6" fill="#041626"></rect><rect x="150" y="108" width="6" height="6" fill="#041626"></rect><rect x="162" y="108" width="6" height="6" fill="#041626"></rect><rect x="180" y="108" width="6" height="6" fill="#041626"></rect><rect x="192" y="108" width="6" height="6" fill="#041626"></rect><rect x="204" y="108" width="6" height="6" fill="#041626"></rect><rect x="216" y="108" width="6" height="6" fill="#041626"></rect><rect x="42" y="114" width="6" height="6" fill="#041626"></rect><rect x="60" y="114" width="6" height="6" fill="#041626"></rect><rect x="66" y="114" width="6" height="6" fill="#041626"></rect><rect x="72" y="114" width="6" height="6" fill="#041626"></rect><rect x="78" y="114" width="6" height="6" fill="#041626"></rect><rect x="84" y="114" width="6" height="6" fill="#041626"></rect><rect x="90" y="114" width="6" height="6" fill="#041626"></rect><rect x="96" y="114" width="6" height="6" fill="#041626"></rect><rect x="102" y="114" width="6" height="6" fill="#041626"></rect><rect x="132" y="114" width="6" height="6" fill="#041626"></rect><rect x="138" y="114" width="6" height="6" fill="#041626"></rect><rect x="150" y="114" width="6" height="6" fill="#041626"></rect><rect x="156" y="114" width="6" height="6" fill="#041626"></rect><rect x="168" y="114" width="6" height="6" fill="#041626"></rect><rect x="174" y="114" width="6" height="6" fill="#041626"></rect><rect x="180" y="114" width="6" height="6" fill="#041626"></rect><rect x="186" y="114" width="6" height="6" fill="#041626"></rect><rect x="198" y="114" width="6" height="6" fill="#041626"></rect><rect x="210" y="114" width="6" height="6" fill="#041626"></rect><rect x="0" y="120" width="6" height="6" fill="#041626"></rect><rect x="12" y="120" width="6" height="6" fill="#041626"></rect><rect x="18" y="120" width="6" height="6" fill="#041626"></rect><rect x="36" y="120" width="6" height="6" fill="#041626"></rect><rect x="48" y="120" width="6" height="6" fill="#041626"></rect><rect x="54" y="120" width="6" height="6" fill="#041626"></rect><rect x="60" y="120" width="6" height="6" fill="#041626"></rect><rect x="84" y="120" width="6" height="6" fill="#041626"></rect><rect x="96" y="120" width="6" height="6" fill="#041626"></rect><rect x="108" y="120" width="6" height="6" fill="#041626"></rect><rect x="114" y="120" width="6" height="6" fill="#041626"></rect><rect x="120" y="120" width="6" height="6" fill="#041626"></rect><rect x="132" y="120" width="6" height="6" fill="#041626"></rect><rect x="144" y="120" width="6" height="6" fill="#041626"></rect><rect x="168" y="120" width="6" height="6" fill="#041626"></rect><rect x="174" y="120" width="6" height="6" fill="#041626"></rect><rect x="180" y="120" width="6" height="6" fill="#041626"></rect><rect x="192" y="120" width="6" height="6" fill="#041626"></rect><rect x="198" y="120" width="6" height="6" fill="#041626"></rect><rect x="216" y="120" width="6" height="6" fill="#041626"></rect><rect x="12" y="126" width="6" height="6" fill="#041626"></rect><rect x="24" y="126" width="6" height="6" fill="#041626"></rect><rect x="30" y="126" width="6" height="6" fill="#041626"></rect><rect x="42" y="126" width="6" height="6" fill="#041626"></rect><rect x="48" y="126" width="6" height="6" fill="#041626"></rect><rect x="54" y="126" width="6" height="6" fill="#041626"></rect><rect x="60" y="126" width="6" height="6" fill="#041626"></rect><rect x="108" y="126" width="6" height="6" fill="#041626"></rect><rect x="114" y="126" width="6" height="6" fill="#041626"></rect><rect x="120" y="126" width="6" height="6" fill="#041626"></rect><rect x="126" y="126" width="6" height="6" fill="#041626"></rect><rect x="132" y="126" width="6" height="6" fill="#041626"></rect><rect x="144" y="126" width="6" height="6" fill="#041626"></rect><rect x="150" y="126" width="6" height="6" fill="#041626"></rect><rect x="156" y="126" width="6" height="6" fill="#041626"></rect><rect x="162" y="126" width="6" height="6" fill="#041626"></rect><rect x="168" y="126" width="6" height="6" fill="#041626"></rect><rect x="174" y="126" width="6" height="6" fill="#041626"></rect><rect x="186" y="126" width="6" height="6" fill="#041626"></rect><rect x="192" y="126" width="6" height="6" fill="#041626"></rect><rect x="210" y="126" width="6" height="6" fill="#041626"></rect><rect x="12" y="132" width="6" height="6" fill="#041626"></rect><rect x="18" y="132" width="6" height="6" fill="#041626"></rect><rect x="24" y="132" width="6" height="6" fill="#041626"></rect><rect x="36" y="132" width="6" height="6" fill="#041626"></rect><rect x="42" y="132" width="6" height="6" fill="#041626"></rect><rect x="48" y="132" width="6" height="6" fill="#041626"></rect><rect x="54" y="132" width="6" height="6" fill="#041626"></rect><rect x="60" y="132" width="6" height="6" fill="#041626"></rect><rect x="66" y="132" width="6" height="6" fill="#041626"></rect><rect x="96" y="132" width="6" height="6" fill="#041626"></rect><rect x="108" y="132" width="6" height="6" fill="#041626"></rect><rect x="120" y="132" width="6" height="6" fill="#041626"></rect><rect x="126" y="132" width="6" height="6" fill="#041626"></rect><rect x="132" y="132" width="6" height="6" fill="#041626"></rect><rect x="138" y="132" width="6" height="6" fill="#041626"></rect><rect x="150" y="132" width="6" height="6" fill="#041626"></rect><rect x="162" y="132" width="6" height="6" fill="#041626"></rect><rect x="192" y="132" width="6" height="6" fill="#041626"></rect><rect x="198" y="132" width="6" height="6" fill="#041626"></rect><rect x="216" y="132" width="6" height="6" fill="#041626"></rect><rect x="6" y="138" width="6" height="6" fill="#041626"></rect><rect x="12" y="138" width="6" height="6" fill="#041626"></rect><rect x="24" y="138" width="6" height="6" fill="#041626"></rect><rect x="30" y="138" width="6" height="6" fill="#041626"></rect><rect x="42" y="138" width="6" height="6" fill="#041626"></rect><rect x="60" y="138" width="6" height="6" fill="#041626"></rect><rect x="66" y="138" width="6" height="6" fill="#041626"></rect><rect x="72" y="138" width="6" height="6" fill="#041626"></rect><rect x="84" y="138" width="6" height="6" fill="#041626"></rect><rect x="90" y="138" width="6" height="6" fill="#041626"></rect><rect x="96" y="138" width="6" height="6" fill="#041626"></rect><rect x="102" y="138" width="6" height="6" fill="#041626"></rect><rect x="108" y="138" width="6" height="6" fill="#041626"></rect><rect x="120" y="138" width="6" height="6" fill="#041626"></rect><rect x="138" y="138" width="6" height="6" fill="#041626"></rect><rect x="144" y="138" width="6" height="6" fill="#041626"></rect><rect x="150" y="138" width="6" height="6" fill="#041626"></rect><rect x="162" y="138" width="6" height="6" fill="#041626"></rect><rect x="168" y="138" width="6" height="6" fill="#041626"></rect><rect x="174" y="138" width="6" height="6" fill="#041626"></rect><rect x="186" y="138" width="6" height="6" fill="#041626"></rect><rect x="204" y="138" width="6" height="6" fill="#041626"></rect><rect x="210" y="138" width="6" height="6" fill="#041626"></rect><rect x="216" y="138" width="6" height="6" fill="#041626"></rect><rect x="6" y="144" width="6" height="6" fill="#041626"></rect><rect x="24" y="144" width="6" height="6" fill="#041626"></rect><rect x="36" y="144" width="6" height="6" fill="#041626"></rect><rect x="42" y="144" width="6" height="6" fill="#041626"></rect><rect x="48" y="144" width="6" height="6" fill="#041626"></rect><rect x="54" y="144" width="6" height="6" fill="#041626"></rect><rect x="60" y="144" width="6" height="6" fill="#041626"></rect><rect x="66" y="144" width="6" height="6" fill="#041626"></rect><rect x="72" y="144" width="6" height="6" fill="#041626"></rect><rect x="78" y="144" width="6" height="6" fill="#041626"></rect><rect x="84" y="144" width="6" height="6" fill="#041626"></rect><rect x="90" y="144" width="6" height="6" fill="#041626"></rect><rect x="120" y="144" width="6" height="6" fill="#041626"></rect><rect x="126" y="144" width="6" height="6" fill="#041626"></rect><rect x="144" y="144" width="6" height="6" fill="#041626"></rect><rect x="150" y="144" width="6" height="6" fill="#041626"></rect><rect x="186" y="144" width="6" height="6" fill="#041626"></rect><rect x="192" y="144" width="6" height="6" fill="#041626"></rect><rect x="198" y="144" width="6" height="6" fill="#041626"></rect><rect x="210" y="144" width="6" height="6" fill="#041626"></rect><rect x="216" y="144" width="6" height="6" fill="#041626"></rect><rect x="0" y="150" width="6" height="6" fill="#041626"></rect><rect x="6" y="150" width="6" height="6" fill="#041626"></rect><rect x="12" y="150" width="6" height="6" fill="#041626"></rect><rect x="18" y="150" width="6" height="6" fill="#041626"></rect><rect x="24" y="150" width="6" height="6" fill="#041626"></rect><rect x="48" y="150" width="6" height="6" fill="#041626"></rect><rect x="60" y="150" width="6" height="6" fill="#041626"></rect><rect x="66" y="150" width="6" height="6" fill="#041626"></rect><rect x="72" y="150" width="6" height="6" fill="#041626"></rect><rect x="78" y="150" width="6" height="6" fill="#041626"></rect><rect x="84" y="150" width="6" height="6" fill="#041626"></rect><rect x="126" y="150" width="6" height="6" fill="#041626"></rect><rect x="132" y="150" width="6" height="6" fill="#041626"></rect><rect x="144" y="150" width="6" height="6" fill="#041626"></rect><rect x="150" y="150" width="6" height="6" fill="#041626"></rect><rect x="156" y="150" width="6" height="6" fill="#041626"></rect><rect x="180" y="150" width="6" height="6" fill="#041626"></rect><rect x="198" y="150" width="6" height="6" fill="#041626"></rect><rect x="204" y="150" width="6" height="6" fill="#041626"></rect><rect x="0" y="156" width="6" height="6" fill="#041626"></rect><rect x="6" y="156" width="6" height="6" fill="#041626"></rect><rect x="12" y="156" width="6" height="6" fill="#041626"></rect><rect x="24" y="156" width="6" height="6" fill="#041626"></rect><rect x="36" y="156" width="6" height="6" fill="#041626"></rect><rect x="42" y="156" width="6" height="6" fill="#041626"></rect><rect x="48" y="156" width="6" height="6" fill="#041626"></rect><rect x="54" y="156" width="6" height="6" fill="#041626"></rect><rect x="60" y="156" width="6" height="6" fill="#041626"></rect><rect x="66" y="156" width="6" height="6" fill="#041626"></rect><rect x="72" y="156" width="6" height="6" fill="#041626"></rect><rect x="78" y="156" width="6" height="6" fill="#041626"></rect><rect x="114" y="156" width="6" height="6" fill="#041626"></rect><rect x="126" y="156" width="6" height="6" fill="#041626"></rect><rect x="144" y="156" width="6" height="6" fill="#041626"></rect><rect x="162" y="156" width="6" height="6" fill="#041626"></rect><rect x="180" y="156" width="6" height="6" fill="#041626"></rect><rect x="186" y="156" width="6" height="6" fill="#041626"></rect><rect x="192" y="156" width="6" height="6" fill="#041626"></rect><rect x="210" y="156" width="6" height="6" fill="#041626"></rect><rect x="216" y="156" width="6" height="6" fill="#041626"></rect><rect x="0" y="162" width="6" height="6" fill="#041626"></rect><rect x="12" y="162" width="6" height="6" fill="#041626"></rect><rect x="18" y="162" width="6" height="6" fill="#041626"></rect><rect x="30" y="162" width="6" height="6" fill="#041626"></rect><rect x="42" y="162" width="6" height="6" fill="#041626"></rect><rect x="60" y="162" width="6" height="6" fill="#041626"></rect><rect x="66" y="162" width="6" height="6" fill="#041626"></rect><rect x="72" y="162" width="6" height="6" fill="#041626"></rect><rect x="96" y="162" width="6" height="6" fill="#041626"></rect><rect x="120" y="162" width="6" height="6" fill="#041626"></rect><rect x="132" y="162" width="6" height="6" fill="#041626"></rect><rect x="144" y="162" width="6" height="6" fill="#041626"></rect><rect x="168" y="162" width="6" height="6" fill="#041626"></rect><rect x="174" y="162" width="6" height="6" fill="#041626"></rect><rect x="186" y="162" width="6" height="6" fill="#041626"></rect><rect x="204" y="162" width="6" height="6" fill="#041626"></rect><rect x="210" y="162" width="6" height="6" fill="#041626"></rect><rect x="216" y="162" width="6" height="6" fill="#041626"></rect><rect x="0" y="168" width="6" height="6" fill="#041626"></rect><rect x="18" y="168" width="6" height="6" fill="#041626"></rect><rect x="24" y="168" width="6" height="6" fill="#041626"></rect><rect x="30" y="168" width="6" height="6" fill="#041626"></rect><rect x="36" y="168" width="6" height="6" fill="#041626"></rect><rect x="48" y="168" width="6" height="6" fill="#041626"></rect><rect x="54" y="168" width="6" height="6" fill="#041626"></rect><rect x="72" y="168" width="6" height="6" fill="#041626"></rect><rect x="102" y="168" width="6" height="6" fill="#041626"></rect><rect x="120" y="168" width="6" height="6" fill="#041626"></rect><rect x="126" y="168" width="6" height="6" fill="#041626"></rect><rect x="138" y="168" width="6" height="6" fill="#041626"></rect><rect x="150" y="168" width="6" height="6" fill="#041626"></rect><rect x="162" y="168" width="6" height="6" fill="#041626"></rect><rect x="168" y="168" width="6" height="6" fill="#041626"></rect><rect x="174" y="168" width="6" height="6" fill="#041626"></rect><rect x="180" y="168" width="6" height="6" fill="#041626"></rect><rect x="186" y="168" width="6" height="6" fill="#041626"></rect><rect x="192" y="168" width="6" height="6" fill="#041626"></rect><rect x="198" y="168" width="6" height="6" fill="#041626"></rect><rect x="210" y="168" width="6" height="6" fill="#041626"></rect><rect x="60" y="174" width="6" height="6" fill="#041626"></rect><rect x="78" y="174" width="6" height="6" fill="#041626"></rect><rect x="90" y="174" width="6" height="6" fill="#041626"></rect><rect x="126" y="174" width="6" height="6" fill="#041626"></rect><rect x="132" y="174" width="6" height="6" fill="#041626"></rect><rect x="168" y="174" width="6" height="6" fill="#041626"></rect><rect x="192" y="174" width="6" height="6" fill="#041626"></rect><rect x="198" y="174" width="6" height="6" fill="#041626"></rect><rect x="204" y="174" width="6" height="6" fill="#041626"></rect><rect x="210" y="174" width="6" height="6" fill="#041626"></rect><rect x="0" y="180" width="6" height="6" fill="#041626"></rect><rect x="6" y="180" width="6" height="6" fill="#041626"></rect><rect x="12" y="180" width="6" height="6" fill="#041626"></rect><rect x="18" y="180" width="6" height="6" fill="#041626"></rect><rect x="24" y="180" width="6" height="6" fill="#041626"></rect><rect x="30" y="180" width="6" height="6" fill="#041626"></rect><rect x="36" y="180" width="6" height="6" fill="#041626"></rect><rect x="54" y="180" width="6" height="6" fill="#041626"></rect><rect x="72" y="180" width="6" height="6" fill="#041626"></rect><rect x="84" y="180" width="6" height="6" fill="#041626"></rect><rect x="90" y="180" width="6" height="6" fill="#041626"></rect><rect x="102" y="180" width="6" height="6" fill="#041626"></rect><rect x="108" y="180" width="6" height="6" fill="#041626"></rect><rect x="126" y="180" width="6" height="6" fill="#041626"></rect><rect x="138" y="180" width="6" height="6" fill="#041626"></rect><rect x="150" y="180" width="6" height="6" fill="#041626"></rect><rect x="156" y="180" width="6" height="6" fill="#041626"></rect><rect x="168" y="180" width="6" height="6" fill="#041626"></rect><rect x="180" y="180" width="6" height="6" fill="#041626"></rect><rect x="192" y="180" width="6" height="6" fill="#041626"></rect><rect x="198" y="180" width="6" height="6" fill="#041626"></rect><rect x="204" y="180" width="6" height="6" fill="#041626"></rect><rect x="216" y="180" width="6" height="6" fill="#041626"></rect><rect x="0" y="186" width="6" height="6" fill="#041626"></rect><rect x="36" y="186" width="6" height="6" fill="#041626"></rect><rect x="48" y="186" width="6" height="6" fill="#041626"></rect><rect x="54" y="186" width="6" height="6" fill="#041626"></rect><rect x="84" y="186" width="6" height="6" fill="#041626"></rect><rect x="90" y="186" width="6" height="6" fill="#041626"></rect><rect x="96" y="186" width="6" height="6" fill="#041626"></rect><rect x="102" y="186" width="6" height="6" fill="#041626"></rect><rect x="108" y="186" width="6" height="6" fill="#041626"></rect><rect x="114" y="186" width="6" height="6" fill="#041626"></rect><rect x="126" y="186" width="6" height="6" fill="#041626"></rect><rect x="132" y="186" width="6" height="6" fill="#041626"></rect><rect x="144" y="186" width="6" height="6" fill="#041626"></rect><rect x="150" y="186" width="6" height="6" fill="#041626"></rect><rect x="162" y="186" width="6" height="6" fill="#041626"></rect><rect x="168" y="186" width="6" height="6" fill="#041626"></rect><rect x="192" y="186" width="6" height="6" fill="#041626"></rect><rect x="198" y="186" width="6" height="6" fill="#041626"></rect><rect x="210" y="186" width="6" height="6" fill="#041626"></rect><rect x="0" y="192" width="6" height="6" fill="#041626"></rect><rect x="12" y="192" width="6" height="6" fill="#041626"></rect><rect x="18" y="192" width="6" height="6" fill="#041626"></rect><rect x="24" y="192" width="6" height="6" fill="#041626"></rect><rect x="36" y="192" width="6" height="6" fill="#041626"></rect><rect x="48" y="192" width="6" height="6" fill="#041626"></rect><rect x="66" y="192" width="6" height="6" fill="#041626"></rect><rect x="78" y="192" width="6" height="6" fill="#041626"></rect><rect x="90" y="192" width="6" height="6" fill="#041626"></rect><rect x="114" y="192" width="6" height="6" fill="#041626"></rect><rect x="120" y="192" width="6" height="6" fill="#041626"></rect><rect x="144" y="192" width="6" height="6" fill="#041626"></rect><rect x="156" y="192" width="6" height="6" fill="#041626"></rect><rect x="162" y="192" width="6" height="6" fill="#041626"></rect><rect x="168" y="192" width="6" height="6" fill="#041626"></rect><rect x="174" y="192" width="6" height="6" fill="#041626"></rect><rect x="180" y="192" width="6" height="6" fill="#041626"></rect><rect x="186" y="192" width="6" height="6" fill="#041626"></rect><rect x="192" y="192" width="6" height="6" fill="#041626"></rect><rect x="210" y="192" width="6" height="6" fill="#041626"></rect><rect x="0" y="198" width="6" height="6" fill="#041626"></rect><rect x="12" y="198" width="6" height="6" fill="#041626"></rect><rect x="18" y="198" width="6" height="6" fill="#041626"></rect><rect x="24" y="198" width="6" height="6" fill="#041626"></rect><rect x="36" y="198" width="6" height="6" fill="#041626"></rect><rect x="54" y="198" width="6" height="6" fill="#041626"></rect><rect x="60" y="198" width="6" height="6" fill="#041626"></rect><rect x="66" y="198" width="6" height="6" fill="#041626"></rect><rect x="78" y="198" width="6" height="6" fill="#041626"></rect><rect x="90" y="198" width="6" height="6" fill="#041626"></rect><rect x="102" y="198" width="6" height="6" fill="#041626"></rect><rect x="108" y="198" width="6" height="6" fill="#041626"></rect><rect x="126" y="198" width="6" height="6" fill="#041626"></rect><rect x="132" y="198" width="6" height="6" fill="#041626"></rect><rect x="144" y="198" width="6" height="6" fill="#041626"></rect><rect x="150" y="198" width="6" height="6" fill="#041626"></rect><rect x="156" y="198" width="6" height="6" fill="#041626"></rect><rect x="180" y="198" width="6" height="6" fill="#041626"></rect><rect x="186" y="198" width="6" height="6" fill="#041626"></rect><rect x="198" y="198" width="6" height="6" fill="#041626"></rect><rect x="0" y="204" width="6" height="6" fill="#041626"></rect><rect x="12" y="204" width="6" height="6" fill="#041626"></rect><rect x="18" y="204" width="6" height="6" fill="#041626"></rect><rect x="24" y="204" width="6" height="6" fill="#041626"></rect><rect x="36" y="204" width="6" height="6" fill="#041626"></rect><rect x="54" y="204" width="6" height="6" fill="#041626"></rect><rect x="66" y="204" width="6" height="6" fill="#041626"></rect><rect x="72" y="204" width="6" height="6" fill="#041626"></rect><rect x="78" y="204" width="6" height="6" fill="#041626"></rect><rect x="102" y="204" width="6" height="6" fill="#041626"></rect><rect x="108" y="204" width="6" height="6" fill="#041626"></rect><rect x="120" y="204" width="6" height="6" fill="#041626"></rect><rect x="138" y="204" width="6" height="6" fill="#041626"></rect><rect x="144" y="204" width="6" height="6" fill="#041626"></rect><rect x="150" y="204" width="6" height="6" fill="#041626"></rect><rect x="162" y="204" width="6" height="6" fill="#041626"></rect><rect x="186" y="204" width="6" height="6" fill="#041626"></rect><rect x="192" y="204" width="6" height="6" fill="#041626"></rect><rect x="198" y="204" width="6" height="6" fill="#041626"></rect><rect x="210" y="204" width="6" height="6" fill="#041626"></rect><rect x="216" y="204" width="6" height="6" fill="#041626"></rect><rect x="0" y="210" width="6" height="6" fill="#041626"></rect><rect x="36" y="210" width="6" height="6" fill="#041626"></rect><rect x="66" y="210" width="6" height="6" fill="#041626"></rect><rect x="72" y="210" width="6" height="6" fill="#041626"></rect><rect x="96" y="210" width="6" height="6" fill="#041626"></rect><rect x="108" y="210" width="6" height="6" fill="#041626"></rect><rect x="114" y="210" width="6" height="6" fill="#041626"></rect><rect x="120" y="210" width="6" height="6" fill="#041626"></rect><rect x="126" y="210" width="6" height="6" fill="#041626"></rect><rect x="132" y="210" width="6" height="6" fill="#041626"></rect><rect x="138" y="210" width="6" height="6" fill="#041626"></rect><rect x="144" y="210" width="6" height="6" fill="#041626"></rect><rect x="174" y="210" width="6" height="6" fill="#041626"></rect><rect x="180" y="210" width="6" height="6" fill="#041626"></rect><rect x="192" y="210" width="6" height="6" fill="#041626"></rect><rect x="198" y="210" width="6" height="6" fill="#041626"></rect><rect x="204" y="210" width="6" height="6" fill="#041626"></rect><rect x="210" y="210" width="6" height="6" fill="#041626"></rect><rect x="216" y="210" width="6" height="6" fill="#041626"></rect><rect x="0" y="216" width="6" height="6" fill="#041626"></rect><rect x="6" y="216" width="6" height="6" fill="#041626"></rect><rect x="12" y="216" width="6" height="6" fill="#041626"></rect><rect x="18" y="216" width="6" height="6" fill="#041626"></rect><rect x="24" y="216" width="6" height="6" fill="#041626"></rect><rect x="30" y="216" width="6" height="6" fill="#041626"></rect><rect x="36" y="216" width="6" height="6" fill="#041626"></rect><rect x="54" y="216" width="6" height="6" fill="#041626"></rect><rect x="60" y="216" width="6" height="6" fill="#041626"></rect><rect x="72" y="216" width="6" height="6" fill="#041626"></rect><rect x="84" y="216" width="6" height="6" fill="#041626"></rect><rect x="90" y="216" width="6" height="6" fill="#041626"></rect><rect x="120" y="216" width="6" height="6" fill="#041626"></rect><rect x="138" y="216" width="6" height="6" fill="#041626"></rect><rect x="144" y="216" width="6" height="6" fill="#041626"></rect><rect x="168" y="216" width="6" height="6" fill="#041626"></rect><rect x="180" y="216" width="6" height="6" fill="#041626"></rect><rect x="198" y="216" width="6" height="6" fill="#041626"></rect><rect x="216" y="216" width="6" height="6" fill="#041626"></rect></g></svg>